<svg width="120" height="143" viewBox="0 0 120 143" fill="none" xmlns="http://www.w3.org/2000/svg">
<path d="M55.2859 1.95262C57.8894 -0.650873 62.1105 -0.650875 64.714 1.95262C67.3175 4.55612 67.3175 8.77722 64.714 11.3807L50.5719 25.5228L60 34.9509L74.1421 20.8088C76.7456 18.2053 80.9667 18.2053 83.5702 20.8088C86.1737 23.4123 86.1737 27.6334 83.5702 30.2369L69.4281 44.379L83.5702 58.5212C96.5877 71.5386 96.5877 92.6441 83.5702 105.662C70.5527 118.679 49.4472 118.679 36.4297 105.662C23.4123 92.6441 23.4123 71.5386 36.4297 58.5212C39.0332 55.9177 43.2543 55.9177 45.8578 58.5212C48.4613 61.1247 48.4613 65.3458 45.8578 67.9493C38.0473 75.7597 38.0473 88.423 45.8578 96.2335C53.6683 104.044 66.3316 104.044 74.1421 96.2335C81.9526 88.423 81.9526 75.7597 74.1421 67.9493L41.1438 34.9509L27.0017 49.0931C8.77719 67.3175 8.77719 96.8652 27.0017 115.09C45.2261 133.314 74.7738 133.314 92.9983 115.09C111.223 96.8652 111.223 67.3175 92.9983 49.0931C90.3948 46.4896 90.3948 42.2685 92.9983 39.665C95.6018 37.0615 99.8229 37.0615 102.426 39.665C125.858 63.0964 125.858 101.086 102.426 124.518C78.9949 147.949 41.005 147.949 17.5736 124.518C-5.85789 101.086 -5.85789 63.0964 17.5736 39.665L55.2859 1.95262Z" fill="url(#paint0_linear_220_10886)"/>
<defs>
<linearGradient id="paint0_linear_220_10886" x1="-1.35284" y1="144.239" x2="79.6472" y2="-42.2614" gradientUnits="userSpaceOnUse">
<stop stop-color="#FF6B9D"/>
<stop offset="0.38" stop-color="#E91E63"/>
<stop offset="0.72" stop-color="#9C27B0"/>
<stop offset="1" stop-color="#6A1B9A"/>
</linearGradient>
</defs>
</svg>